<svg xmlns="http://www.w3.org/2000/svg" version="1.1" xmlns:xlink="http://www.w3.org/1999/xlink" xmlns:svgjs="http://svgjs.dev/svgjs" viewBox="0 0 800 800"><defs><linearGradient x1="50%" y1="0%" x2="50%" y2="100%" id="nnneon-grad"><stop stop-color="hsl(193, 92%, 56%)" stop-opacity="1" offset="0%"></stop><stop stop-color="hsl(190, 24%, 46%)" stop-opacity="1" offset="100%"></stop></linearGradient><filter id="nnneon-filter" x="-100%" y="-100%" width="400%" height="400%" filterUnits="objectBoundingBox" primitiveUnits="userSpaceOnUse" color-interpolation-filters="sRGB">
	<feGaussianBlur stdDeviation="18 9" x="0%" y="0%" width="100%" height="100%" in="SourceGraphic" edgeMode="none" result="blur"></feGaussianBlur></filter><filter id="nnneon-filter2" x="-100%" y="-100%" width="400%" height="400%" filterUnits="objectBoundingBox" primitiveUnits="userSpaceOnUse" color-interpolation-filters="sRGB">
	<feGaussianBlur stdDeviation="11 17" x="0%" y="0%" width="100%" height="100%" in="SourceGraphic" edgeMode="none" result="blur"></feGaussianBlur></filter></defs><g stroke-width="12.5" stroke="url(#nnneon-grad)" fill="none"><path d="M391.0703282876335 271.21001274734317C396.5960091432459 268.0203340116858 403.4039908567541 268.0203340116858 408.9296717123665 271.2109057145144L507.0703356999587 327.8723516309932C512.596016555571 331.0620303666505 516.0000074123252 336.95829259832607 516.0000074123252 343.3385430368119V456.66143486976955C516.0000074123252 463.0416853082554 512.596016555571 468.937947539931 507.0703356999587 472.12851924275947L408.9296717123665 528.7899651592384C403.4039908567541 531.9796438948956 396.5960091432459 531.9796438948956 391.0703282876335 528.7890721920671L292.9296643000413 472.12762627558834C287.40398344442895 468.937947539931 283.99999258767485 463.0416853082554 283.99999258767485 456.66143486976955V343.3385430368119C283.99999258767485 336.95829259832607 287.40398344442895 331.0620303666505 292.9296643000413 327.87145866382195L391.0703282876335 271.21001274734317Z " filter="url(#nnneon-filter)"></path><path d="M403.0703282876335 271.21001274734317C408.5960091432459 268.0203340116858 415.4039908567541 268.0203340116858 420.9296717123665 271.2109057145144L519.0703356999587 327.8723516309932C524.596016555571 331.0620303666505 528.0000074123252 336.95829259832607 528.0000074123252 343.3385430368119V456.66143486976955C528.0000074123252 463.0416853082554 524.596016555571 468.937947539931 519.0703356999587 472.12851924275947L420.9296717123665 528.7899651592384C415.4039908567541 531.9796438948956 408.5960091432459 531.9796438948956 403.0703282876335 528.7890721920671L304.9296643000413 472.12762627558834C299.40398344442895 468.937947539931 295.99999258767485 463.0416853082554 295.99999258767485 456.66143486976955V343.3385430368119C295.99999258767485 336.95829259832607 299.40398344442895 331.0620303666505 304.9296643000413 327.87145866382195L403.0703282876335 271.21001274734317Z " filter="url(#nnneon-filter2)" opacity="0.25"></path><path d="M379.0703282876335 271.21001274734317C384.5960091432459 268.0203340116858 391.4039908567541 268.0203340116858 396.9296717123665 271.2109057145144L495.0703356999587 327.8723516309932C500.59601655557105 331.0620303666505 504.0000074123252 336.95829259832607 504.0000074123252 343.3385430368119V456.66143486976955C504.0000074123252 463.0416853082554 500.59601655557105 468.937947539931 495.0703356999587 472.12851924275947L396.9296717123665 528.7899651592384C391.4039908567541 531.9796438948956 384.5960091432459 531.9796438948956 379.0703282876335 528.7890721920671L280.9296643000413 472.12762627558834C275.40398344442895 468.937947539931 271.99999258767485 463.0416853082554 271.99999258767485 456.66143486976955V343.3385430368119C271.99999258767485 336.95829259832607 275.40398344442895 331.0620303666505 280.9296643000413 327.87145866382195L379.0703282876335 271.21001274734317Z " filter="url(#nnneon-filter2)" opacity="0.25"></path><path d="M391.0703282876335 271.21001274734317C396.5960091432459 268.0203340116858 403.4039908567541 268.0203340116858 408.9296717123665 271.2109057145144L507.0703356999587 327.8723516309932C512.596016555571 331.0620303666505 516.0000074123252 336.95829259832607 516.0000074123252 343.3385430368119V456.66143486976955C516.0000074123252 463.0416853082554 512.596016555571 468.937947539931 507.0703356999587 472.12851924275947L408.9296717123665 528.7899651592384C403.4039908567541 531.9796438948956 396.5960091432459 531.9796438948956 391.0703282876335 528.7890721920671L292.9296643000413 472.12762627558834C287.40398344442895 468.937947539931 283.99999258767485 463.0416853082554 283.99999258767485 456.66143486976955V343.3385430368119C283.99999258767485 336.95829259832607 287.40398344442895 331.0620303666505 292.9296643000413 327.87145866382195L391.0703282876335 271.21001274734317Z "></path></g></svg>