<svg xmlns="http://www.w3.org/2000/svg" version="1.1" xmlns:xlink="http://www.w3.org/1999/xlink" xmlns:svgjs="http://svgjs.dev/svgjs" viewBox="0 0 800 800"><defs><linearGradient x1="50%" y1="0%" x2="50%" y2="100%" id="nnneon-grad"><stop stop-color="hsl(149, 39%, 26%)" stop-opacity="1" offset="0%"></stop><stop stop-color="hsl(190, 24%, 46%)" stop-opacity="1" offset="100%"></stop></linearGradient><filter id="nnneon-filter" x="-100%" y="-100%" width="400%" height="400%" filterUnits="objectBoundingBox" primitiveUnits="userSpaceOnUse" color-interpolation-filters="sRGB">
	<feGaussianBlur stdDeviation="18 9" x="0%" y="0%" width="100%" height="100%" in="SourceGraphic" edgeMode="none" result="blur"></feGaussianBlur></filter><filter id="nnneon-filter2" x="-100%" y="-100%" width="400%" height="400%" filterUnits="objectBoundingBox" primitiveUnits="userSpaceOnUse" color-interpolation-filters="sRGB">
	<feGaussianBlur stdDeviation="11 17" x="0%" y="0%" width="100%" height="100%" in="SourceGraphic" edgeMode="none" result="blur"></feGaussianBlur></filter></defs><g stroke-width="12.5" stroke="url(#nnneon-grad)" fill="none"><path d="M400 266.054931640625L516.0000074123252 333.02746948337335V466.97254516887017L400 533.9450830116185L283.99999258767485 466.97254516887017V333.02746948337335L400 266.054931640625Z " filter="url(#nnneon-filter)"></path><path d="M412 266.054931640625L528.0000074123252 333.02746948337335V466.97254516887017L412 533.9450830116185L295.99999258767485 466.97254516887017V333.02746948337335L412 266.054931640625Z " filter="url(#nnneon-filter2)" opacity="0.25"></path><path d="M388 266.054931640625L504.0000074123252 333.02746948337335V466.97254516887017L388 533.9450830116185L271.99999258767485 466.97254516887017V333.02746948337335L388 266.054931640625Z " filter="url(#nnneon-filter2)" opacity="0.25"></path><path d="M400 266.054931640625L516.0000074123252 333.02746948337335V466.97254516887017L400 533.9450830116185L283.99999258767485 466.97254516887017V333.02746948337335L400 266.054931640625Z "></path></g></svg>