<svg xmlns="http://www.w3.org/2000/svg" version="1.1" xmlns:xlink="http://www.w3.org/1999/xlink" xmlns:svgjs="http://svgjs.dev/svgjs" viewBox="0 0 800 800"><defs><linearGradient x1="50%" y1="0%" x2="50%" y2="100%" id="nnneon-grad"><stop stop-color="hsl(193, 92%, 56%)" stop-opacity="1" offset="0%"></stop><stop stop-color="hsl(149, 39%, 26%)" stop-opacity="1" offset="100%"></stop></linearGradient><filter id="nnneon-filter" x="-100%" y="-100%" width="400%" height="400%" filterUnits="objectBoundingBox" primitiveUnits="userSpaceOnUse" color-interpolation-filters="sRGB">
	<feGaussianBlur stdDeviation="18 9" x="0%" y="0%" width="100%" height="100%" in="SourceGraphic" edgeMode="none" result="blur"></feGaussianBlur></filter><filter id="nnneon-filter2" x="-100%" y="-100%" width="400%" height="400%" filterUnits="objectBoundingBox" primitiveUnits="userSpaceOnUse" color-interpolation-filters="sRGB">
	<feGaussianBlur stdDeviation="11 17" x="0%" y="0%" width="100%" height="100%" in="SourceGraphic" edgeMode="none" result="blur"></feGaussianBlur></filter></defs><g stroke-width="12.5" stroke="url(#nnneon-grad)" fill="none"><path d="M391.60241006544595 288.120640383711C395.04277631954676 281.1687020380063 404.9572522729494 281.1687020380063 408.3976185270502 288.120640383711L515.0161802421661 503.5688924521994C518.0977065520075 509.7956555580692 513.5667666814106 517.0933169832301 506.6195129302786 517.0933169832301H293.3805156622176C286.4332619110854 517.0933169832301 281.90232204048874 509.7956555580692 284.98384835033005 503.5688924521994L391.60241006544595 288.120640383711Z " filter="url(#nnneon-filter)"></path><path d="M403.60241006544595 288.120640383711C407.04277631954676 281.1687020380063 416.9572522729494 281.1687020380063 420.3976185270502 288.120640383711L527.0161802421661 503.5688924521994C530.0977065520075 509.7956555580692 525.5667666814106 517.0933169832301 518.6195129302786 517.0933169832301H305.3805156622176C298.4332619110854 517.0933169832301 293.90232204048874 509.7956555580692 296.98384835033005 503.5688924521994L403.60241006544595 288.120640383711Z " filter="url(#nnneon-filter2)" opacity="0.25"></path><path d="M379.60241006544595 288.120640383711C383.04277631954676 281.1687020380063 392.9572522729494 281.1687020380063 396.3976185270502 288.120640383711L503.0161802421661 503.5688924521994C506.0977065520075 509.7956555580692 501.5667666814106 517.0933169832301 494.6195129302786 517.0933169832301H281.3805156622176C274.4332619110854 517.0933169832301 269.90232204048874 509.7956555580692 272.98384835033005 503.5688924521994L379.60241006544595 288.120640383711Z " filter="url(#nnneon-filter2)" opacity="0.25"></path><path d="M391.60241006544595 288.120640383711C395.04277631954676 281.1687020380063 404.9572522729494 281.1687020380063 408.3976185270502 288.120640383711L515.0161802421661 503.5688924521994C518.0977065520075 509.7956555580692 513.5667666814106 517.0933169832301 506.6195129302786 517.0933169832301H293.3805156622176C286.4332619110854 517.0933169832301 281.90232204048874 509.7956555580692 284.98384835033005 503.5688924521994L391.60241006544595 288.120640383711Z "></path></g></svg>