<!DOCTYPE svg PUBLIC "-//W3C//DTD SVG 1.1//EN" "http://www.w3.org/Graphics/SVG/1.1/DTD/svg11.dtd">
<!-- Uploaded to: SVG Repo, www.svgrepo.com, Transformed by: SVG Repo Mixer Tools -->
<svg height="800px" width="800px" version="1.1" id="Layer_1" xmlns="http://www.w3.org/2000/svg" xmlns:xlink="http://www.w3.org/1999/xlink" viewBox="-103.82 -103.82 702.04 702.04" xml:space="preserve" fill="#000000">
<g id="SVGRepo_bgCarrier" stroke-width="0"/>
<g id="SVGRepo_tracerCarrier" stroke-linecap="round" stroke-linejoin="round" stroke="#CCCCCC" stroke-width="0.9888"/>
<g id="SVGRepo_iconCarrier"> <circle style="fill:#285c41;" cx="247.1" cy="248" r="212"/> <path style="fill:#5a8992;" d="M97.5,98.4c82.4-82.4,216.8-82.4,300,0c82.4,82.4,82.4,216.8,0,300"/> <polygon style="fill:#FFAA00;" points="451.9,0 208.7,0 65.5,216 161.5,216 42.3,494.4 440.7,136 343.1,136 "/> <polygon style="fill:#FFBC00;" points="451.9,0 259.9,144.8 65.5,216 222.3,216 42.3,494.4 440.7,136 343.1,136 "/> <polygon style="fill:#FFF200;" points="346.3,0 208.7,0 65.5,216 283.9,216 42.3,494.4 440.7,136 227.1,136 "/> <polygon style="fill:#FFDA00;" points="346.3,0 238.3,19.2 65.5,216 283.9,216 42.3,494.4 440.7,136 196.7,175.2 "/> </g>
</svg>